<svg width="936" height="1805" viewBox="0 0 936 1805" fill="none" xmlns="http://www.w3.org/2000/svg">
<path d="M207.045 1.46605C115.696 9.38308 36.5617 74.7846 10.0689 164.109C0.0910854 198.187 0.435148 185.107 0.435148 505.574V800.742L4.21984 812.79C11.2731 835.336 28.4762 853.407 48.4319 859.259C59.4419 862.529 79.0534 862.529 90.0634 859.259C109.331 853.58 126.018 836.197 134.103 813.65L138.06 802.463L138.576 523.99L139.092 245.689L182.444 246.033L225.796 246.55L226.656 984.899C227.516 1696.74 227.688 1723.59 230.613 1732.71C239.387 1758.36 257.278 1780.39 279.126 1791.58C291.684 1798.12 315.768 1805 325.918 1805C335.036 1805 357.056 1798.63 370.818 1791.92C395.591 1779.87 416.063 1753.2 421.912 1724.97C424.148 1714.64 424.492 1654.06 424.492 1286.95C424.492 957.878 425.008 860.292 426.557 858.743C429.481 855.817 507.239 855.817 510.164 858.743C511.712 860.292 512.228 957.878 512.228 1286.95C512.228 1581.95 512.744 1716.36 514.12 1723.42C515.153 1728.93 518.937 1740.12 522.894 1748.03C535.796 1775.05 558.849 1792.95 591.706 1801.56C608.221 1805.86 613.21 1805.86 630.242 1801.56C667.916 1792.26 694.065 1768.51 706.107 1732.71C709.032 1723.59 709.204 1696.74 710.064 984.899L710.924 246.55H753.932H796.94L797.8 526.227C798.832 839.983 797.628 812.962 811.562 833.959C819.476 845.663 826.357 851.514 840.464 858.054C848.893 862.013 852.506 862.701 866.612 862.701C880.719 862.701 884.332 862.013 892.761 858.054C910.996 849.621 923.383 834.992 930.952 813.134L934.565 802.463L935.081 521.064C935.425 330.195 935.081 232.781 933.705 217.98C929.92 172.715 915.813 132.958 890.869 97.6752C880.203 82.5295 854.742 56.3688 839.604 44.8375C805.885 19.5374 762.706 4.04761 721.246 2.1544C687.872 0.777529 222.872 0.0891748 207.045 1.46605Z" fill="#F44336" fill-opacity="0.37"/>
</svg>
